<?xml version="1.0" encoding="UTF-8" standalone="no"?><!DOCTYPE svg PUBLIC "-//W3C//DTD SVG 1.1//EN" "http://www.w3.org/Graphics/SVG/1.1/DTD/svg11.dtd"><svg width="1554px" height="391px" version="1.1" xmlns="http://www.w3.org/2000/svg" xmlns:xlink="http://www.w3.org/1999/xlink" xml:space="preserve" xmlns:serif="http://www.serif.com/" style="fill-rule:evenodd;clip-rule:evenodd;stroke-linejoin:round;stroke-miterlimit:2;"><path d="M808.336,383.324l10.332,-15.751l3.9,0l-15.7,23.348l-5.825,-23.348l3.698,0l3.595,15.751Zm-438.003,6.685c3.591,0 6.519,-2.224 7.226,-5.365c0.759,-3.598 -1.212,-6.182 -4.798,-8.058c-2.63,-1.368 -3.137,-3.04 -2.732,-4.459c0.405,-1.47 1.771,-2.281 3.642,-2.281c2.525,0 4.141,2.129 4.141,2.129l2.229,-1.926c0,0 -1.976,-3.236 -6.673,-3.236c-3.288,0 -6.023,1.87 -6.732,4.807c-0.709,3.142 0.861,5.879 4.557,7.855c2.579,1.368 3.388,2.889 2.984,4.663c-0.354,1.672 -1.872,2.838 -3.844,2.838c-3.595,0 -5.014,-3.244 -5.014,-3.244l-2.431,1.571c0,0 1.57,4.706 7.445,4.706Zm816.995,-22.436l-2.989,13.779c-0.706,3.344 1.013,5.168 3.647,5.168c2.027,0 4.408,-1.318 6.738,-4.56l3.09,-14.387l3.547,0l-4.611,21.677l-3.444,0l0.607,-3.085c-2.279,2.479 -4.559,3.844 -7.092,3.844c-4.346,0 -7.119,-3.287 -6.057,-8.201l3.02,-14.235l3.544,0Zm-877.534,22.436c9.573,0 17.172,-6.276 19.301,-15.853c2.432,-11.249 -5.524,-21.376 -16.869,-21.376c-9.624,0 -17.319,6.276 -19.341,15.853c-2.38,11.249 5.513,21.376 16.909,21.376Zm775.008,0c6.687,0 11.398,-2.63 15.147,-7.391l-2.786,-2.078c-2.888,3.75 -6.991,5.878 -12.057,5.878c-9.271,0 -15.446,-8.006 -13.476,-17.329c1.621,-7.601 7.852,-12.719 15.35,-12.719c7.194,0 11.095,4.257 12.817,8.614l3.344,-1.52c-2.179,-5.32 -7.194,-10.684 -15.857,-10.684c-9.575,0 -17.321,6.276 -19.341,15.903c-2.379,11.199 5.46,21.326 16.859,21.326Zm-438.635,-36.469l-4.712,22.24c-1.368,6.282 1.774,10.486 7.397,10.486c4.661,0 8.562,-3.293 9.727,-8.865l5.066,-23.861l3.799,0l-5.167,24.317c-1.621,7.548 -6.839,12.152 -13.881,12.152c-7.599,0 -12.566,-5.769 -10.692,-14.584l4.663,-21.885l3.8,0Zm265.815,36.469c5.947,0 10.31,-3.439 11.323,-8.252c1.318,-5.98 -2.077,-9.983 -7.206,-12.972c-3.862,-2.23 -6.144,-4.915 -5.387,-8.26c0.559,-2.837 3.304,-4.357 6.353,-4.357c5.481,0 7.608,3.749 7.608,3.749l2.685,-2.027c0,0 -2.938,-5.11 -10.344,-5.11c-4.981,0 -9.023,2.629 -9.98,7.137c-1.113,5.321 2.266,9.121 7.286,12.009c4.117,2.382 6.199,5.321 5.337,9.273c-0.711,3.142 -3.659,5.422 -7.573,5.422c-6.112,0 -8.189,-5.827 -8.189,-5.827l-2.888,1.773c0,0 2.634,7.442 10.975,7.442Zm335.507,-38.243l-3.749,17.727c1.368,-1.315 3.647,-2.68 7.346,-2.68c6.991,0 11.652,6.428 10.182,13.372c-1.317,5.98 -6.028,9.824 -11.702,9.824c-5.421,0 -8.207,-2.781 -9.322,-4.25l-0.861,3.491l-3.394,0l7.953,-37.484l3.547,0Zm-694.914,15.805l-4.61,21.679l-3.192,0l0.304,-2.174c-1.368,1.365 -3.698,2.933 -7.599,2.933c-6.991,0 -11.652,-6.378 -10.183,-13.372c1.317,-5.93 6.029,-9.824 11.703,-9.824c5.37,0 8.156,2.73 9.321,4.249l0.861,-3.491l3.395,0Zm-112.467,0l-4.61,21.679l-3.192,0l0.304,-2.174c-1.368,1.365 -3.698,2.933 -7.599,2.933c-6.991,0 -11.652,-6.378 -10.183,-13.372c1.318,-5.93 6.029,-9.824 11.703,-9.824c5.37,0 8.156,2.73 9.322,4.249l0.861,-3.491l3.394,0Zm267.515,0l-0.608,3.086c2.28,-2.479 4.559,-3.844 7.092,-3.844c4.346,0 7.12,3.287 6.057,8.2l-3.02,14.236l-3.543,0l2.989,-13.78c0.705,-3.343 -1.014,-5.167 -3.648,-5.167c-2.026,0 -4.407,1.317 -6.738,4.559l-3.09,14.388l-3.546,0l4.61,-21.678l3.445,0Zm440.237,-15.805l-8,37.483l-3.544,0l8,-37.483l3.544,0Zm-161.557,1.774l-0.76,3.54l-14.434,0l-2.482,11.759l15.65,0l-0.709,3.388l-15.701,0l-3.596,17.022l-3.798,0l7.597,-35.709l18.233,0Zm-505.335,23.249l9.825,-9.219l4.608,0l-11.496,10.333l7.344,11.346l-4.204,0l-6.533,-10.434l-2.229,10.434l-3.545,0l8.002,-37.483l3.545,0l-5.317,25.023Zm283.647,-9.223l-4.607,21.683l-3.546,0l4.61,-21.683l3.543,0Zm-226.479,19.055c-5.116,0 -8.409,-4.561 -7.396,-9.477c0.861,-4.156 4.458,-6.893 8.308,-6.893c4.762,0 7.397,2.838 8.461,4.308l-1.824,8.869c-1.52,1.419 -4.104,3.193 -7.549,3.193Zm719.688,-6.892c-0.862,4.105 -4.459,6.892 -8.309,6.892c-4.813,0 -7.447,-2.889 -8.511,-4.358l1.875,-8.819c1.57,-1.419 4.103,-3.193 7.548,-3.193c5.117,0 8.41,4.511 7.397,9.478Zm-832.154,6.892c-5.117,0 -8.41,-4.561 -7.397,-9.477c0.862,-4.156 4.458,-6.893 8.309,-6.893c4.762,0 7.396,2.838 8.46,4.308l-1.824,8.869c-1.52,1.419 -4.103,3.193 -7.548,3.193Zm-115.622,-0.203c-9.269,0 -15.394,-8.006 -13.422,-17.329c1.621,-7.601 7.8,-12.719 15.296,-12.719c9.269,0 15.348,7.956 13.422,17.279c-1.52,7.652 -7.8,12.769 -15.296,12.769Zm454.77,-25.539c1.467,0 2.58,-1.113 2.58,-2.53c0,-1.417 -1.113,-2.53 -2.58,-2.53c-1.518,0 -2.631,1.113 -2.631,2.53c0,1.417 1.113,2.53 2.631,2.53Zm-221.64,-242.665l-24.82,124.097l24.82,64.773l90.145,0l-90.145,-188.87Zm331.926,188.87l-227.393,0l6.127,-30.635l3.063,-15.318l91.484,0l-3.064,15.318l44.427,0l21.445,-107.225l-140.929,0l33.699,-168.496l232.413,0l-6.127,30.635l-3.064,15.318l-91.484,0l3.064,-15.318l-49.445,0l-21.445,107.225l140.929,0l-33.7,168.496Zm-504.933,-275.721l-99.147,0l-8.056,40.278l75.454,0l-36.707,183.538l28.787,51.905l-18.382,0l-15.277,-27.546l-5.509,27.546l-61.272,0l21.749,-108.742l-10.424,-18.795l-25.508,127.537l-61.271,0l61.271,-306.356l160.419,0l-6.127,30.635Zm1177.53,-0.211l-16.205,0l-15.36,76.801l16.205,0l-6.127,30.635l-16.205,0l-33.699,168.496l-61.272,0l33.7,-168.496l-19.074,0l-33.657,168.285l-61.271,0l33.657,-168.285l-71.31,0l6.127,-30.635l71.31,0l15.36,-76.801l-10.453,0l6.127,-30.636l168.274,0l-6.127,30.636Zm-566.288,275.932l-83.401,0l61.271,-306.356l232.388,0l-6.127,30.635l-3.064,15.318l-91.484,0l3.064,-15.318l-57.503,0l-21.445,107.225l107.622,0l-6.127,30.636l-107.622,0l-27.572,137.86Zm-442.446,-234.823l132.133,0l-6.127,30.635l-132.133,0l-40.838,204.188l-83.401,0l0.033,-0.165l-17.949,-0.046l52.76,-203.977l-88.866,0l6.127,-30.635l90.664,0l18.502,-71.533l83.402,0l-14.307,71.533Zm-377.043,130.874l-61.272,0l34.355,-171.772l-18.421,0l-55.145,275.721l-61.271,0l61.271,-306.356l140.964,0l-40.481,202.407Zm1198.91,-171.983l-26.907,0l-100.251,122.543l111.931,0l-0.043,0.211l0.043,0l-30.594,152.967l-163.741,0l6.127,-30.636l7.757,-38.786l-56.794,69.422l-72.88,0l219.019,-275.721l-48.03,0l6.128,-30.636l154.362,0l-6.127,30.636Zm-82.584,153.178l-41.199,0l-18.381,91.907l41.199,0l18.381,-91.907Zm-1007.23,-82.053l-14.183,0l-10.582,52.911l10.423,18.795l14.342,-71.706Zm1199.2,-71.125l-19.073,0l-15.361,76.801l19.074,0l15.36,-76.801Z" style="fill:#fff;"/></svg>